<svg width="55" height="55" viewBox="0 0 55 55" fill="none" xmlns="http://www.w3.org/2000/svg">
<path fill-rule="evenodd" clip-rule="evenodd" d="M48.125 27.5C48.125 38.8909 38.8909 48.125 27.5 48.125C16.1091 48.125 6.875 38.8909 6.875 27.5C6.875 16.1091 16.1091 6.875 27.5 6.875C38.8909 6.875 48.125 16.1091 48.125 27.5ZM27.5 39.9584C26.9477 39.9584 26.5 39.5106 26.5 38.9584V28.5H16.0417C15.4894 28.5 15.0417 28.0523 15.0417 27.5C15.0417 26.9477 15.4894 26.5 16.0417 26.5H26.5V16.0417C26.5 15.4894 26.9477 15.0417 27.5 15.0417C28.0523 15.0417 28.5 15.4894 28.5 16.0417V26.5H38.9583C39.5106 26.5 39.9583 26.9477 39.9583 27.5C39.9583 28.0523 39.5106 28.5 38.9583 28.5H28.5V38.9584C28.5 39.5106 28.0523 39.9584 27.5 39.9584Z" fill="white"/>
</svg>
