<svg width="40" height="40" viewBox="0 0 40 40" fill="none" xmlns="http://www.w3.org/2000/svg">
<path fill-rule="evenodd" clip-rule="evenodd" d="M35 20C35 28.2843 28.2843 35 20 35C11.7157 35 5 28.2843 5 20C5 11.7157 11.7157 5 20 5C28.2843 5 35 11.7157 35 20ZM11.9191 26.6667L12.6262 25.9596L18.5858 20L12.6262 14.0405L11.9191 13.3333L13.3333 11.9191L14.0405 12.6262L20 18.5858L25.9596 12.6262L26.6667 11.9191L28.0809 13.3333L27.3738 14.0405L21.4142 20L27.3738 25.9596L28.0809 26.6667L26.6667 28.0809L25.9596 27.3738L20 21.4142L14.0404 27.3738L13.3333 28.0809L11.9191 26.6667Z" fill="white"/>
<path d="M12.6262 25.9596L12.2727 25.606L12.2727 25.606L12.6262 25.9596ZM11.9191 26.6667L11.5656 26.3131L11.212 26.6667L11.5656 27.0202L11.9191 26.6667ZM18.5858 20L18.9393 20.3536L19.2929 20L18.9393 19.6465L18.5858 20ZM12.6262 14.0405L12.9798 13.6869L12.9798 13.6869L12.6262 14.0405ZM11.9191 13.3333L11.5656 12.9798L11.212 13.3333L11.5656 13.6869L11.9191 13.3333ZM13.3333 11.9191L13.6869 11.5656L13.3333 11.212L12.9798 11.5656L13.3333 11.9191ZM14.0405 12.6262L13.6869 12.9798L13.6869 12.9798L14.0405 12.6262ZM20 18.5858L19.6465 18.9393L20 19.2929L20.3536 18.9393L20 18.5858ZM25.9596 12.6262L26.3131 12.9798L26.3131 12.9798L25.9596 12.6262ZM26.6667 11.9191L27.0202 11.5656L26.6667 11.212L26.3131 11.5656L26.6667 11.9191ZM28.0809 13.3333L28.4344 13.6869L28.788 13.3333L28.4344 12.9798L28.0809 13.3333ZM27.3738 14.0405L27.7273 14.394L27.7273 14.394L27.3738 14.0405ZM21.4142 20L21.0607 19.6465L20.7071 20L21.0607 20.3536L21.4142 20ZM27.3738 25.9596L27.7273 25.606L27.7273 25.606L27.3738 25.9596ZM28.0809 26.6667L28.4344 27.0202L28.788 26.6667L28.4344 26.3131L28.0809 26.6667ZM26.6667 28.0809L26.3131 28.4344L26.6667 28.788L27.0202 28.4344L26.6667 28.0809ZM25.9596 27.3738L25.606 27.7273L25.606 27.7273L25.9596 27.3738ZM20 21.4142L20.3536 21.0607L20 20.7071L19.6465 21.0607L20 21.4142ZM14.0404 27.3738L14.394 27.7273L14.394 27.7273L14.0404 27.3738ZM13.3333 28.0809L12.9798 28.4344L13.3333 28.788L13.6869 28.4344L13.3333 28.0809ZM20 35.5C28.5604 35.5 35.5 28.5604 35.5 20H34.5C34.5 28.0081 28.0081 34.5 20 34.5V35.5ZM4.5 20C4.5 28.5604 11.4396 35.5 20 35.5V34.5C11.9919 34.5 5.5 28.0081 5.5 20H4.5ZM20 4.5C11.4396 4.5 4.5 11.4396 4.5 20H5.5C5.5 11.9919 11.9919 5.5 20 5.5V4.5ZM35.5 20C35.5 11.4396 28.5604 4.5 20 4.5V5.5C28.0081 5.5 34.5 11.9919 34.5 20H35.5ZM12.2727 25.606L11.5656 26.3131L12.2727 27.0202L12.9798 26.3131L12.2727 25.606ZM18.2322 19.6465L12.2727 25.606L12.9798 26.3131L18.9393 20.3536L18.2322 19.6465ZM12.2727 14.394L18.2322 20.3536L18.9393 19.6465L12.9798 13.6869L12.2727 14.394ZM11.5656 13.6869L12.2727 14.394L12.9798 13.6869L12.2727 12.9798L11.5656 13.6869ZM12.9798 11.5656L11.5656 12.9798L12.2727 13.6869L13.6869 12.2727L12.9798 11.5656ZM14.394 12.2727L13.6869 11.5656L12.9798 12.2727L13.6869 12.9798L14.394 12.2727ZM20.3536 18.2322L14.394 12.2727L13.6869 12.9798L19.6465 18.9393L20.3536 18.2322ZM25.606 12.2727L19.6465 18.2322L20.3536 18.9393L26.3131 12.9798L25.606 12.2727ZM26.3131 11.5656L25.606 12.2727L26.3131 12.9798L27.0202 12.2727L26.3131 11.5656ZM28.4344 12.9798L27.0202 11.5656L26.3131 12.2727L27.7273 13.6869L28.4344 12.9798ZM27.7273 14.394L28.4344 13.6869L27.7273 12.9798L27.0202 13.6869L27.7273 14.394ZM21.7678 20.3536L27.7273 14.394L27.0202 13.6869L21.0607 19.6465L21.7678 20.3536ZM27.7273 25.606L21.7678 19.6465L21.0607 20.3536L27.0202 26.3131L27.7273 25.606ZM28.4344 26.3131L27.7273 25.606L27.0202 26.3131L27.7273 27.0202L28.4344 26.3131ZM27.0202 28.4344L28.4344 27.0202L27.7273 26.3131L26.3131 27.7273L27.0202 28.4344ZM25.606 27.7273L26.3131 28.4344L27.0202 27.7273L26.3131 27.0202L25.606 27.7273ZM19.6465 21.7678L25.606 27.7273L26.3131 27.0202L20.3536 21.0607L19.6465 21.7678ZM14.394 27.7273L20.3536 21.7678L19.6465 21.0607L13.6869 27.0202L14.394 27.7273ZM13.6869 28.4344L14.394 27.7273L13.6869 27.0202L12.9798 27.7273L13.6869 28.4344ZM11.5656 27.0202L12.9798 28.4344L13.6869 27.7273L12.2727 26.3131L11.5656 27.0202Z" fill="white"/>
</svg>
