<svg width="55" height="55" viewBox="0 0 55 55" fill="none" xmlns="http://www.w3.org/2000/svg">
<path d="M27.5 11.4584L24.6716 8.62995L27.5 5.80152L30.3284 8.62995L27.5 11.4584ZM31.5 32.0834C31.5 34.2925 29.7091 36.0834 27.5 36.0834C25.2909 36.0834 23.5 34.2925 23.5 32.0834L31.5 32.0834ZM13.2132 20.0883L24.6716 8.62995L30.3284 14.2868L18.8701 25.7451L13.2132 20.0883ZM30.3284 8.62995L41.7868 20.0883L36.1299 25.7451L24.6716 14.2868L30.3284 8.62995ZM31.5 11.4584L31.5 32.0834L23.5 32.0834L23.5 11.4584L31.5 11.4584Z" fill="white"/>
<path d="M11.4583 36.6666L11.4583 38.9583C11.4583 41.4896 13.5104 43.5416 16.0417 43.5416L38.9583 43.5416C41.4896 43.5416 43.5417 41.4896 43.5417 38.9583V36.6666" stroke="white" stroke-width="8"/>
</svg>
