<svg width="55" height="55" viewBox="0 0 55 55" fill="none" xmlns="http://www.w3.org/2000/svg">
<path d="M36.6666 18.3333V16.0417C36.6666 12.1324 36.6666 10.1777 35.6334 8.8312C35.3674 8.48453 35.0571 8.17423 34.7104 7.90823C33.3639 6.875 31.4093 6.875 27.5 6.875V6.875C23.5907 6.875 21.636 6.875 20.2895 7.90823C19.9428 8.17423 19.6325 8.48453 19.3665 8.8312C18.3333 10.1777 18.3333 12.1324 18.3333 16.0417V18.3333" stroke="white" stroke-width="2" stroke-linecap="round"/>
<path fill-rule="evenodd" clip-rule="evenodd" d="M7.75368 16.9204C6.875 17.799 6.875 19.2133 6.875 22.0417V42.4167C6.875 46.1879 6.875 48.0735 8.04657 49.2451C9.21815 50.4167 11.1038 50.4167 14.875 50.4167H40.125C43.8962 50.4167 45.7819 50.4167 46.9534 49.2451C48.125 48.0735 48.125 46.1879 48.125 42.4167V22.0417C48.125 19.2133 48.125 17.799 47.2463 16.9204C46.3676 16.0417 44.9534 16.0417 42.125 16.0417H12.875C10.0466 16.0417 8.63236 16.0417 7.75368 16.9204ZM26.5 36.6667V36.8557C24.2873 36.3944 22.625 34.433 22.625 32.0834C22.625 29.391 24.8076 27.2084 27.5 27.2084C30.1924 27.2084 32.375 29.391 32.375 32.0834C32.375 34.433 30.7127 36.3944 28.5 36.8557V36.6667H26.5ZM20.625 32.0834C20.625 35.5407 23.177 38.4019 26.5 38.8862V43.5417H28.5V38.8862C31.823 38.4019 34.375 35.5407 34.375 32.0834C34.375 28.2864 31.297 25.2084 27.5 25.2084C23.703 25.2084 20.625 28.2864 20.625 32.0834Z" fill="white"/>
</svg>
