<svg width="55" height="55" viewBox="0 0 55 55" fill="none" xmlns="http://www.w3.org/2000/svg">
<path fill-rule="evenodd" clip-rule="evenodd" d="M7.75368 12.337C6.875 13.2157 6.875 14.6299 6.875 17.4583V37.5416C6.875 40.3701 6.875 41.7843 7.75368 42.663C8.63236 43.5416 10.0466 43.5416 12.875 43.5416H42.125C44.9534 43.5416 46.3676 43.5416 47.2463 42.663C48.125 41.7843 48.125 40.3701 48.125 37.5416V17.4583C48.125 14.6299 48.125 13.2157 47.2463 12.337C46.3676 11.4583 44.9534 11.4583 42.125 11.4583H12.875C10.0466 11.4583 8.63236 11.4583 7.75368 12.337ZM14.3047 19.7929C13.8452 19.4866 13.2243 19.6108 12.9179 20.0703C12.6116 20.5298 12.7358 21.1507 13.1953 21.457L26.3906 30.2539C27.0624 30.7018 27.9376 30.7018 28.6094 30.2539L41.8047 21.457C42.2642 21.1507 42.3884 20.5298 42.0821 20.0703C41.7757 19.6108 41.1548 19.4866 40.6953 19.7929L27.5 28.5898L14.3047 19.7929Z" fill="white"/>
</svg>
