<svg width="55" height="55" viewBox="0 0 55 55" fill="none" xmlns="http://www.w3.org/2000/svg">
<path d="M12.1648 16.7051L17.7663 26.5078C18.0432 26.9922 18.1816 27.2345 18.1816 27.5C18.1816 27.7656 18.0432 28.0078 17.7663 28.4923L12.1648 38.295C10.9265 40.462 10.3073 41.5456 10.7902 42.0829C11.273 42.6202 12.4163 42.12 14.7029 41.1196L41.6452 29.3324C43.4407 28.5468 44.3385 28.1541 44.3385 27.5C44.3385 26.846 43.4407 26.4533 41.6452 25.6677L14.7029 13.8805C12.4163 12.8801 11.273 12.3799 10.7902 12.9172C10.3073 13.4545 10.9265 14.538 12.1648 16.7051Z" fill="white"/>
</svg>
