<svg width="55" height="55" viewBox="0 0 55 55" fill="none" xmlns="http://www.w3.org/2000/svg">
<g clip-path="url(#clip0_76_374)">
<path d="M50.3643 14.7321L39.2857 19.6428V13.75C39.2857 12.708 38.8718 11.7088 38.1351 10.9721C37.3983 10.2353 36.3991 9.82141 35.3571 9.82141H5.89287C4.85093 9.82141 3.8517 10.2353 3.11495 10.9721C2.3782 11.7088 1.96429 12.708 1.96429 13.75V41.25C1.96429 42.2918 2.3782 43.2913 3.11495 44.0279C3.8517 44.7645 4.85093 45.1786 5.89287 45.1786H35.3571C36.3991 45.1786 37.3983 44.7645 38.1351 44.0279C38.8718 43.2913 39.2857 42.2918 39.2857 41.25V35.3571L50.3643 40.2678C50.6629 40.3829 50.9854 40.4238 51.3032 40.3857C51.621 40.348 51.9251 40.2333 52.1883 40.051C52.4515 39.8691 52.6664 39.6255 52.8141 39.3415C52.9619 39.0574 53.0381 38.7415 53.0357 38.4214V16.5786C53.0381 16.2584 52.9619 15.9426 52.8141 15.6585C52.6664 15.3745 52.4515 15.1308 52.1883 14.9488C51.9251 14.7668 51.621 14.6519 51.3032 14.6141C50.9854 14.5764 50.6629 14.6169 50.3643 14.7321Z" stroke="white" stroke-width="4" stroke-linecap="round" stroke-linejoin="round"/>
</g>
<defs>
<clipPath id="clip0_76_374">
<rect width="55" height="55" fill="white"/>
</clipPath>
</defs>
</svg>
