<svg width="436" height="436" viewBox="0 0 436 436" fill="none" xmlns="http://www.w3.org/2000/svg">
<g clip-path="url(#clip0_4_141)">
<path d="M0 0V436.081H436.081V0H0Z" fill="#222831"/>
<path d="M80.2074 95.3434C83.1759 97.6183 83.5486 99.9171 83.6032 103.302L25.5485 103.177C25.4648 100.535 26.0767 98.1234 27.9714 96.1951C30.4197 93.7029 32.9782 93.8247 36.1979 93.8247L41.1875 93.8171C41.2561 93.5905 41.2122 93.2405 41.2125 92.9986L41.2184 83.8728L16.532 83.8904C15.412 83.89 14.171 83.9874 13.0687 83.8008C9.46247 83.1906 6.64636 80.1878 5.6387 76.7663C5.11918 75.0023 5.37572 73.0474 5.37617 71.2253L5.37255 15.8326C5.37436 14.8458 5.31889 13.8287 5.44942 12.8497C6.05497 8.30886 9.71799 5.24509 14.1791 4.97286L93.3435 4.95398C94.1893 4.95516 95.1585 4.87647 95.9847 5.04383C100.779 6.01432 103.769 9.71899 103.783 14.5061L103.789 72.9405C103.79 73.791 103.85 74.6987 103.724 75.5402C103.114 79.6047 100.332 82.9057 96.2573 83.747C95.064 83.9933 93.7438 83.8943 92.5276 83.8939L67.922 83.8858L67.9282 93.7779C68.0738 93.9516 75.8087 93.6833 76.9023 93.9022C78.1481 94.1501 79.1683 94.6058 80.2074 95.3434ZM19.4119 15.0967L15.7127 15.104L15.7026 73.7273L45.7127 73.744C46.3389 73.7754 46.4715 74.3307 46.8291 74.7835L51.3905 80.629C51.6786 81.0055 54.3456 84.7201 54.5149 84.7765L61.9006 75.1701C62.1663 74.8312 62.7173 73.9353 63.0173 73.7295L78.9173 73.7277L93.3512 73.7297L93.4057 15.1223L19.4119 15.0967Z" fill="#00ADB5"/>
<path d="M56.0364 69.1623L55.7613 69.1887C42.3598 70.1032 30.6117 59.3558 29.7745 45.9222C28.9334 32.4291 39.6981 21.0138 53.1078 20.1939C54.5915 20.1634 56.1693 20.0569 57.6336 20.3135C62.8113 21.2203 67.8126 23.3105 71.6925 26.9321C79.9815 34.6687 81.6388 47.4106 75.9054 57.1185C71.8778 63.9378 64.0463 68.913 56.0364 69.1623Z" fill="#00ADB5"/>
<path d="M137.833 13.6772C134.865 11.402 134.492 9.10294 134.437 5.71867L192.492 5.84366C192.576 8.48442 191.963 10.8972 190.069 12.8256C187.62 15.3174 185.063 15.1956 181.842 15.1958L176.853 15.2028C176.784 15.4299 176.828 15.78 176.828 16.0215L176.822 25.1475L201.509 25.1299C202.629 25.1303 203.87 25.0329 204.972 25.2195C208.578 25.8297 211.395 28.8325 212.402 32.254C212.922 34.018 212.665 35.9729 212.665 37.795L212.668 93.1877C212.666 94.1748 212.722 95.1918 212.591 96.1704C211.986 100.712 208.322 103.775 203.861 104.047L124.697 104.067C123.851 104.065 122.882 104.144 122.055 103.976C117.262 103.006 114.272 99.3013 114.258 94.5146L114.252 36.0798C114.252 35.2293 114.19 34.3216 114.316 33.4801C114.927 29.4156 117.709 26.1146 121.783 25.2733C122.977 25.027 124.297 25.1259 125.513 25.1264L150.118 25.1345L150.112 15.2426C149.967 15.0682 142.231 15.3365 141.138 15.1182C139.893 14.8698 138.872 14.4143 137.833 13.6772ZM198.629 93.9235L202.328 93.9167L202.338 35.293L172.328 35.2763C171.702 35.2449 171.569 34.6896 171.211 34.2368L166.65 28.3913C166.362 28.0148 163.695 24.3002 163.526 24.2438L156.14 33.8502C155.874 34.1891 155.323 35.0849 155.023 35.2908L139.123 35.2926L124.689 35.2906L124.635 93.898L198.629 93.9235Z" fill="#00ADB5"/>
<path d="M162.004 39.858L162.279 39.8316C175.681 38.9171 187.429 49.6644 188.266 63.098C189.107 76.5913 178.343 88.0066 164.933 88.8268C163.449 88.8566 161.871 88.9631 160.407 88.7067C155.23 87.7997 150.228 85.7095 146.348 82.0882C138.059 74.3516 136.402 61.6097 142.135 51.9017C146.163 45.0824 153.995 40.1073 162.004 39.858Z" fill="#00ADB5"/>
<path d="M298.248 95.3434C301.216 97.6183 301.589 99.9171 301.644 103.302L243.589 103.177C243.505 100.535 244.117 98.1234 246.012 96.1951C248.461 93.7029 251.018 93.8247 254.239 93.8247L259.228 93.8171C259.296 93.5905 259.253 93.2405 259.253 92.9986L259.259 83.8728L234.572 83.8904C233.452 83.89 232.212 83.9874 231.109 83.8008C227.503 83.1906 224.687 80.1878 223.679 76.7663C223.159 75.0023 223.417 73.0474 223.417 71.2253L223.413 15.8326C223.415 14.8458 223.36 13.8287 223.49 12.8497C224.095 8.30886 227.759 5.24509 232.22 4.97286L311.384 4.95398C312.23 4.95516 313.199 4.87647 314.025 5.04383C318.82 6.01432 321.81 9.71899 321.824 14.5061L321.83 72.9405C321.83 73.791 321.891 74.6987 321.765 75.5402C321.154 79.6047 318.372 82.9057 314.298 83.747C313.105 83.9933 311.784 83.8943 310.568 83.8939L285.963 83.8858L285.969 93.7779C286.114 93.9516 293.85 93.6833 294.943 93.9022C296.189 94.1501 297.209 94.6058 298.248 95.3434ZM237.452 15.0967L233.753 15.104L233.743 73.7273L263.753 73.744C264.379 73.7754 264.512 74.3307 264.87 74.7835L269.431 80.629C269.719 81.0055 272.386 84.7201 272.555 84.7765L279.941 75.1701C280.207 74.8312 280.758 73.9353 281.058 73.7295L296.958 73.7277L311.392 73.7297L311.446 15.1223L237.452 15.0967Z" fill="#00ADB5"/>
<path d="M274.077 69.1623L273.802 69.1887C260.4 70.1032 248.652 59.3558 247.815 45.9222C246.974 32.4291 257.738 21.0138 271.148 20.1939C272.632 20.1634 274.21 20.0569 275.674 20.3135C280.852 21.2203 285.853 23.3105 289.733 26.9321C298.022 34.6687 299.679 47.4106 293.946 57.1185C289.918 63.9378 282.087 68.913 274.077 69.1623Z" fill="#00ADB5"/>
<path d="M355.874 13.6772C352.906 11.402 352.532 9.10294 352.478 5.71867L410.533 5.84366C410.616 8.48442 410.005 10.8972 408.11 12.8256C405.661 15.3174 403.103 15.1956 399.883 15.1958L394.894 15.2028C394.825 15.4299 394.869 15.78 394.869 16.0215L394.863 25.1475L419.549 25.1299C420.669 25.1303 421.91 25.0329 423.012 25.2195C426.619 25.8297 429.435 28.8325 430.443 32.254C430.962 34.018 430.705 35.9729 430.705 37.795L430.708 93.1877C430.707 94.1748 430.762 95.1918 430.632 96.1704C430.026 100.712 426.363 103.775 421.902 104.047L342.738 104.067C341.892 104.065 340.923 104.144 340.096 103.976C335.302 103.006 332.313 99.3013 332.298 94.5146L332.292 36.0798C332.292 35.2293 332.231 34.3216 332.357 33.4801C332.968 29.4156 335.748 26.1146 339.824 25.2733C341.017 25.027 342.338 25.1259 343.554 25.1264L368.159 25.1345L368.153 15.2426C368.007 15.0682 360.272 15.3365 359.178 15.1182C357.933 14.8698 356.913 14.4143 355.874 13.6772ZM416.67 93.9235L420.369 93.9167L420.379 35.293L390.368 35.2763C389.742 35.2449 389.61 34.6896 389.252 34.2368L384.691 28.3913C384.403 28.0148 381.735 24.3002 381.567 24.2438L374.181 33.8502C373.915 34.1891 373.364 35.0849 373.064 35.2908L357.164 35.2926L342.73 35.2906L342.675 93.898L416.67 93.9235Z" fill="#00ADB5"/>
<path d="M380.045 39.858L380.32 39.8316C393.722 38.9171 405.469 49.6644 406.307 63.098C407.147 76.5913 396.383 88.0066 382.974 88.8268C381.489 88.8566 379.912 88.9631 378.448 88.7067C373.27 87.7997 368.269 85.7095 364.388 82.0882C356.099 74.3516 354.443 61.6097 360.176 51.9017C364.204 45.0824 372.035 40.1073 380.045 39.858Z" fill="#00ADB5"/>
<path d="M-25.6973 122.697C-28.6657 120.422 -29.0384 118.123 -29.0931 114.739L28.9617 114.864C29.0454 117.505 28.4334 119.917 26.5388 121.846C24.0905 124.338 21.5319 124.216 18.3122 124.216L13.3226 124.224C13.2541 124.45 13.2979 124.8 13.2977 125.042L13.2918 134.167L37.9782 134.15C39.0983 134.15 40.3392 134.053 41.4413 134.24C45.0475 134.85 47.8642 137.853 48.8717 141.274C49.3913 143.038 49.1341 144.994 49.1341 146.815L49.1375 202.208C49.1358 203.195 49.1911 204.212 49.0608 205.191C48.4553 209.732 44.792 212.796 40.3307 213.067L-38.8329 213.087C-39.6787 213.085 -40.6484 213.164 -41.475 212.997C-46.2691 212.027 -49.2589 208.322 -49.2727 203.535L-49.279 145.1C-49.2793 144.25 -49.3405 143.342 -49.2141 142.501C-48.6035 138.436 -45.8222 135.135 -41.7471 134.293C-40.5538 134.047 -39.2333 134.146 -38.0174 134.147L-13.4119 134.155L-13.418 124.263C-13.5637 124.088 -21.2986 124.356 -22.3922 124.138C-23.638 123.89 -24.6582 123.435 -25.6973 122.697ZM35.0986 202.944L38.7976 202.937L38.8078 144.313L8.79743 144.297C8.17124 144.265 8.03871 143.71 7.68099 143.257L3.11968 137.412C2.83155 137.035 0.164639 133.321 -0.00468445 133.264L-7.39038 142.87C-7.65612 143.209 -8.20718 144.105 -8.50716 144.311L-24.4071 144.313L-38.8409 144.311L-38.8953 202.918L35.0986 202.944Z" fill="#00ADB5"/>
<path d="M-1.52627 148.878L-1.25117 148.852C12.1504 147.937 23.8984 158.685 24.7357 172.118C25.5768 185.611 14.812 197.027 1.40237 197.847C-0.0813274 197.877 -1.65914 197.983 -3.12342 197.727C-8.30112 196.82 -13.3024 194.73 -17.1824 191.108C-25.4713 183.372 -27.1286 170.63 -21.3952 160.922C-17.3676 154.103 -9.53611 149.128 -1.52627 148.878Z" fill="#00ADB5"/>
<path d="M134.718 204.364C137.686 206.639 138.059 208.937 138.113 212.322L80.0586 212.197C79.9749 209.556 80.5869 207.144 82.4815 205.215C84.9298 202.723 87.4879 202.845 90.7083 202.845L95.6977 202.837C95.7667 202.611 95.7224 202.261 95.7224 202.019L95.7283 192.894L71.0421 192.911C69.9221 192.911 68.6811 193.008 67.5788 192.821C63.9726 192.21 61.1565 189.208 60.1488 185.787C59.6293 184.023 59.8859 182.067 59.8863 180.245L59.8827 124.853C59.8845 123.866 59.829 122.849 59.9595 121.87C60.5651 117.329 64.2281 114.265 68.6892 113.993L147.854 113.974C148.699 113.976 149.669 113.896 150.495 114.064C155.289 115.034 158.28 118.739 158.293 123.526L158.299 181.961C158.3 182.811 158.36 183.719 158.234 184.56C157.624 188.625 154.842 191.926 150.767 192.767C149.574 193.014 148.254 192.915 147.038 192.914L122.432 192.906L122.438 202.798C122.584 202.972 130.319 202.704 131.413 202.923C132.658 203.17 133.678 203.626 134.718 204.364ZM73.922 124.117L70.2228 124.124L70.2127 182.748L100.223 182.764C100.849 182.796 100.982 183.351 101.339 183.804L105.9 189.649C106.188 190.026 108.856 193.74 109.025 193.797L116.411 184.191C116.676 183.852 117.227 182.956 117.527 182.75L133.427 182.748L147.861 182.75L147.916 124.143L73.922 124.117Z" fill="#00ADB5"/>
<path d="M110.547 178.183L110.271 178.209C96.8696 179.124 85.1219 168.376 84.2846 154.943C83.4435 141.45 94.208 130.034 107.618 129.214C109.102 129.184 110.679 129.077 112.144 129.334C117.321 130.241 122.322 132.331 126.203 135.953C134.492 143.689 136.148 156.431 130.416 166.138C126.388 172.958 118.556 177.933 110.547 178.183Z" fill="#00ADB5"/>
<path d="M192.343 122.697C189.375 120.422 189.002 118.123 188.948 114.739L247.003 114.864C247.086 117.505 246.474 119.917 244.579 121.846C242.131 124.338 239.573 124.216 236.353 124.216L231.363 124.224C231.295 124.45 231.339 124.8 231.339 125.042L231.333 134.167L256.019 134.15C257.139 134.15 258.38 134.053 259.482 134.24C263.088 134.85 265.905 137.853 266.912 141.274C267.432 143.038 267.175 144.994 267.175 146.815L267.178 202.208C267.176 203.195 267.232 204.212 267.101 205.191C266.496 209.732 262.833 212.796 258.371 213.067L179.207 213.087C178.361 213.085 177.392 213.164 176.565 212.997C171.772 212.027 168.782 208.322 168.768 203.535L168.762 145.1C168.762 144.25 168.7 143.342 168.826 142.501C169.437 138.436 172.219 135.135 176.294 134.293C177.487 134.047 178.807 134.146 180.023 134.147L204.629 134.155L204.623 124.263C204.477 124.088 196.742 124.356 195.648 124.138C194.403 123.89 193.382 123.435 192.343 122.697ZM253.139 202.944L256.838 202.937L256.848 144.313L226.838 144.297C226.212 144.265 226.079 143.71 225.721 143.257L221.16 137.412C220.873 137.035 218.205 133.321 218.036 133.264L210.65 142.87C210.384 143.209 209.833 144.105 209.534 144.311L193.634 144.313L179.2 144.311L179.145 202.918L253.139 202.944Z" fill="#00ADB5"/>
<path d="M216.514 148.878L216.789 148.852C230.191 147.937 241.939 158.685 242.776 172.118C243.617 185.611 232.853 197.027 219.443 197.847C217.959 197.877 216.381 197.983 214.917 197.727C209.74 196.82 204.738 194.73 200.858 191.108C192.569 183.372 190.912 170.63 196.645 160.922C200.673 154.103 208.505 149.128 216.514 148.878Z" fill="#00ADB5"/>
<path d="M352.758 204.364C355.726 206.639 356.099 208.937 356.154 212.322L298.099 212.197C298.015 209.556 298.627 207.144 300.522 205.215C302.971 202.723 305.528 202.845 308.749 202.845L313.738 202.837C313.806 202.611 313.763 202.261 313.763 202.019L313.769 192.894L289.083 192.911C287.963 192.911 286.722 193.008 285.619 192.821C282.013 192.21 279.197 189.208 278.189 185.787C277.669 184.023 277.927 182.067 277.927 180.245L277.923 124.853C277.925 123.866 277.87 122.849 278 121.87C278.606 117.329 282.269 114.265 286.73 113.993L365.894 113.974C366.74 113.976 367.709 113.896 368.535 114.064C373.33 115.034 376.32 118.739 376.334 123.526L376.34 181.961C376.341 182.811 376.401 183.719 376.275 184.56C375.664 188.625 372.883 191.926 368.808 192.767C367.615 193.014 366.294 192.915 365.078 192.914L340.473 192.906L340.479 202.798C340.624 202.972 348.36 202.704 349.453 202.923C350.699 203.17 351.719 203.626 352.758 204.364ZM291.962 124.117L288.263 124.124L288.253 182.748L318.263 182.764C318.889 182.796 319.022 183.351 319.38 183.804L323.941 189.649C324.229 190.026 326.896 193.74 327.065 193.797L334.451 184.191C334.717 183.852 335.268 182.956 335.568 182.75L351.468 182.748L365.902 182.75L365.956 124.143L291.962 124.117Z" fill="#00ADB5"/>
<path d="M328.587 178.183L328.312 178.209C314.91 179.124 303.162 168.376 302.325 154.943C301.485 141.45 312.249 130.034 325.658 129.214C327.143 129.184 328.72 129.077 330.184 129.334C335.362 130.241 340.363 132.331 344.243 135.953C352.532 143.689 354.189 156.431 348.456 166.138C344.428 172.958 336.597 177.933 328.587 178.183Z" fill="#00ADB5"/>
<path d="M410.384 122.697C407.416 120.422 407.043 118.123 406.988 114.739L465.043 114.864C465.127 117.505 464.515 119.917 462.62 121.846C460.171 124.338 457.613 124.216 454.393 124.216L449.404 124.224C449.336 124.45 449.379 124.8 449.379 125.042L449.373 134.167L474.059 134.15C475.179 134.15 476.42 134.053 477.522 134.24C481.129 134.85 483.945 137.853 484.953 141.274C485.472 143.038 485.215 144.994 485.215 146.815L485.219 202.208C485.217 203.195 485.272 204.212 485.142 205.191C484.536 209.732 480.873 212.796 476.412 213.067L397.248 213.087C396.402 213.085 395.433 213.164 394.607 212.997C389.812 212.027 386.823 208.322 386.808 203.535L386.802 145.1C386.802 144.25 386.741 143.342 386.867 142.501C387.478 138.436 390.259 135.135 394.334 134.293C395.527 134.047 396.848 134.146 398.064 134.147L422.669 134.155L422.663 124.263C422.517 124.088 414.782 124.356 413.689 124.138C412.443 123.89 411.423 123.435 410.384 122.697ZM471.18 202.944L474.879 202.937L474.889 144.313L444.879 144.297C444.253 144.265 444.12 143.71 443.762 143.257L439.201 137.412C438.912 137.035 436.246 133.321 436.077 133.264L428.691 142.87C428.425 143.209 427.874 144.105 427.574 144.311L411.674 144.313L397.24 144.311L397.186 202.918L471.18 202.944Z" fill="#00ADB5"/>
<path d="M434.555 148.878L434.83 148.852C448.232 147.937 459.98 158.685 460.817 172.118C461.657 185.611 450.893 197.027 437.484 197.847C435.999 197.877 434.422 197.983 432.958 197.727C427.78 196.82 422.779 194.73 418.899 191.108C410.61 183.372 408.953 170.63 414.686 160.922C418.714 154.103 426.545 149.128 434.555 148.878Z" fill="#00ADB5"/>
<path d="M80.2074 313.384C83.1759 315.659 83.5486 317.958 83.6032 321.342L25.5485 321.217C25.4648 318.576 26.0767 316.164 27.9714 314.236C30.4197 311.744 32.9782 311.865 36.1979 311.865L41.1875 311.858C41.2561 311.631 41.2122 311.281 41.2125 311.039L41.2184 301.914L16.532 301.931C15.412 301.931 14.171 302.028 13.0687 301.841C9.46247 301.231 6.64636 298.228 5.6387 294.807C5.11918 293.043 5.37572 291.088 5.37617 289.266L5.37255 233.873C5.37436 232.886 5.31889 231.869 5.44942 230.891C6.05497 226.349 9.71799 223.285 14.1791 223.014L93.3435 222.994C94.1893 222.996 95.1585 222.917 95.9847 223.084C100.779 224.055 103.769 227.76 103.783 232.546L103.789 290.981C103.79 291.831 103.85 292.739 103.724 293.581C103.114 297.645 100.332 300.946 96.2573 301.788C95.064 302.034 93.7438 301.935 92.5276 301.934L67.922 301.927L67.9282 311.818C68.0738 311.992 75.8087 311.724 76.9023 311.943C78.1481 312.191 79.1683 312.646 80.2074 313.384ZM19.4119 233.137L15.7127 233.144L15.7026 291.768L45.7127 291.784C46.3389 291.816 46.4715 292.371 46.8291 292.824L51.3905 298.67C51.6786 299.046 54.3456 302.76 54.5149 302.817L61.9006 293.211C62.1663 292.872 62.7173 291.976 63.0173 291.77L78.9173 291.768L93.3512 291.77L93.4057 233.163L19.4119 233.137Z" fill="#00ADB5"/>
<path d="M56.0364 287.203L55.7613 287.229C42.3598 288.144 30.6117 277.396 29.7745 263.963C28.9334 250.47 39.6981 239.054 53.1078 238.234C54.5915 238.204 56.1693 238.098 57.6336 238.354C62.8113 239.261 67.8126 241.351 71.6925 244.973C79.9815 252.709 81.6388 265.451 75.9054 275.159C71.8778 281.978 64.0463 286.953 56.0364 287.203Z" fill="#00ADB5"/>
<path d="M137.833 231.718C134.865 229.443 134.492 227.144 134.437 223.759L192.492 223.884C192.576 226.525 191.963 228.938 190.069 230.866C187.62 233.358 185.063 233.236 181.842 233.236L176.853 233.243C176.784 233.47 176.828 233.82 176.828 234.062L176.822 243.188L201.509 243.171C202.629 243.171 203.87 243.073 204.972 243.26C208.578 243.871 211.395 246.873 212.402 250.294C212.922 252.058 212.665 254.014 212.665 255.836L212.668 311.228C212.666 312.215 212.722 313.232 212.591 314.211C211.986 318.752 208.322 321.816 203.861 322.088L124.697 322.107C123.851 322.106 122.882 322.185 122.055 322.017C117.262 321.047 114.272 317.342 114.258 312.555L114.252 254.12C114.252 253.27 114.19 252.362 114.316 251.521C114.927 247.456 117.709 244.155 121.783 243.314C122.977 243.068 124.297 243.166 125.513 243.167L150.118 243.175L150.112 233.283C149.967 233.109 142.231 233.378 141.138 233.159C139.893 232.911 138.872 232.455 137.833 231.718ZM198.629 311.964L202.328 311.957L202.338 253.333L172.328 253.317C171.702 253.286 171.569 252.73 171.211 252.277L166.65 246.432C166.362 246.055 163.695 242.341 163.526 242.284L156.14 251.891C155.874 252.23 155.323 253.126 155.023 253.332L139.123 253.333L124.689 253.332L124.635 311.939L198.629 311.964Z" fill="#00ADB5"/>
<path d="M162.004 257.899L162.279 257.872C175.681 256.957 187.429 267.705 188.266 281.139C189.107 294.632 178.343 306.047 164.933 306.867C163.449 306.897 161.871 307.004 160.407 306.747C155.23 305.84 150.228 303.75 146.348 300.129C138.059 292.392 136.402 279.651 142.135 269.943C146.163 263.123 153.995 258.148 162.004 257.899Z" fill="#00ADB5"/>
<path d="M298.248 313.384C301.216 315.659 301.589 317.958 301.644 321.342L243.589 321.217C243.505 318.576 244.117 316.164 246.012 314.236C248.461 311.744 251.018 311.865 254.239 311.865L259.228 311.858C259.296 311.631 259.253 311.281 259.253 311.039L259.259 301.914L234.572 301.931C233.452 301.931 232.212 302.028 231.109 301.841C227.503 301.231 224.687 298.228 223.679 294.807C223.159 293.043 223.417 291.088 223.417 289.266L223.413 233.873C223.415 232.886 223.36 231.869 223.49 230.891C224.095 226.349 227.759 223.285 232.22 223.014L311.384 222.994C312.23 222.996 313.199 222.917 314.025 223.084C318.82 224.055 321.81 227.76 321.824 232.546L321.83 290.981C321.83 291.831 321.891 292.739 321.765 293.581C321.154 297.645 318.372 300.946 314.298 301.788C313.105 302.034 311.784 301.935 310.568 301.934L285.963 301.927L285.969 311.818C286.114 311.992 293.85 311.724 294.943 311.943C296.189 312.191 297.209 312.646 298.248 313.384ZM237.452 233.137L233.753 233.144L233.743 291.768L263.753 291.784C264.379 291.816 264.512 292.371 264.87 292.824L269.431 298.67C269.719 299.046 272.386 302.76 272.555 302.817L279.941 293.211C280.207 292.872 280.758 291.976 281.058 291.77L296.958 291.768L311.392 291.77L311.446 233.163L237.452 233.137Z" fill="#00ADB5"/>
<path d="M274.077 287.203L273.802 287.229C260.4 288.144 248.652 277.396 247.815 263.963C246.974 250.47 257.738 239.054 271.148 238.234C272.632 238.204 274.21 238.098 275.674 238.354C280.852 239.261 285.853 241.351 289.733 244.973C298.022 252.709 299.679 265.451 293.946 275.159C289.918 281.978 282.087 286.953 274.077 287.203Z" fill="#00ADB5"/>
<path d="M355.874 231.718C352.906 229.443 352.532 227.144 352.478 223.759L410.533 223.884C410.616 226.525 410.005 228.938 408.11 230.866C405.661 233.358 403.103 233.236 399.883 233.236L394.894 233.243C394.825 233.47 394.869 233.82 394.869 234.062L394.863 243.188L419.549 243.171C420.669 243.171 421.91 243.073 423.012 243.26C426.619 243.871 429.435 246.873 430.443 250.294C430.962 252.058 430.705 254.014 430.705 255.836L430.708 311.228C430.707 312.215 430.762 313.232 430.632 314.211C430.026 318.752 426.363 321.816 421.902 322.088L342.738 322.107C341.892 322.106 340.923 322.185 340.096 322.017C335.302 321.047 332.313 317.342 332.298 312.555L332.292 254.12C332.292 253.27 332.231 252.362 332.357 251.521C332.968 247.456 335.748 244.155 339.824 243.314C341.017 243.068 342.338 243.166 343.554 243.167L368.159 243.175L368.153 233.283C368.007 233.109 360.272 233.378 359.178 233.159C357.933 232.911 356.913 232.455 355.874 231.718ZM416.67 311.964L420.369 311.957L420.379 253.333L390.368 253.317C389.742 253.286 389.61 252.73 389.252 252.277L384.691 246.432C384.403 246.055 381.735 242.341 381.567 242.284L374.181 251.891C373.915 252.23 373.364 253.126 373.064 253.332L357.164 253.333L342.73 253.332L342.675 311.939L416.67 311.964Z" fill="#00ADB5"/>
<path d="M380.045 257.899L380.32 257.872C393.722 256.957 405.469 267.705 406.307 281.139C407.147 294.632 396.383 306.047 382.974 306.867C381.489 306.897 379.912 307.004 378.448 306.747C373.27 305.84 368.269 303.75 364.388 300.129C356.099 292.392 354.443 279.651 360.176 269.943C364.204 263.123 372.035 258.148 380.045 257.899Z" fill="#00ADB5"/>
<path d="M-25.6973 340.738C-28.6657 338.463 -29.0384 336.164 -29.0931 332.779L28.9617 332.905C29.0454 335.546 28.4334 337.958 26.5388 339.886C24.0905 342.378 21.5319 342.256 18.3122 342.256L13.3226 342.263C13.2541 342.491 13.2979 342.841 13.2977 343.083L13.2918 352.209L37.9782 352.191C39.0983 352.191 40.3392 352.094 41.4413 352.28C45.0475 352.891 47.8642 355.893 48.8717 359.315C49.3913 361.079 49.1341 363.034 49.1341 364.856L49.1375 420.249C49.1358 421.236 49.1911 422.253 49.0608 423.231C48.4553 427.773 44.792 430.836 40.3307 431.108L-38.8329 431.128C-39.6787 431.126 -40.6484 431.205 -41.475 431.037C-46.2691 430.067 -49.2589 426.362 -49.2727 421.575L-49.279 363.141C-49.2793 362.291 -49.3405 361.383 -49.2141 360.541C-48.6035 356.477 -45.8222 353.175 -41.7471 352.334C-40.5538 352.088 -39.2333 352.187 -38.0174 352.187L-13.4119 352.195L-13.418 342.303C-13.5637 342.129 -21.2986 342.398 -22.3922 342.179C-23.638 341.931 -24.6582 341.475 -25.6973 340.738ZM35.0986 420.984L38.7976 420.978L38.8078 362.354L8.79743 362.337C8.17124 362.306 8.03871 361.751 7.68099 361.297L3.11968 355.452C2.83155 355.076 0.164639 351.361 -0.00468445 351.304L-7.39038 360.911C-7.65612 361.25 -8.20718 362.146 -8.50716 362.352L-24.4071 362.354L-38.8409 362.352L-38.8953 420.959L35.0986 420.984Z" fill="#00ADB5"/>
<path d="M-1.52627 366.919L-1.25117 366.892C12.1504 365.978 23.8984 376.726 24.7357 390.159C25.5768 403.652 14.812 415.067 1.40237 415.888C-0.0813274 415.917 -1.65914 416.024 -3.12342 415.768C-8.30112 414.861 -13.3024 412.77 -17.1824 409.149C-25.4713 401.413 -27.1286 388.671 -21.3952 378.963C-17.3676 372.143 -9.53611 367.168 -1.52627 366.919Z" fill="#00ADB5"/>
<path d="M134.718 422.404C137.686 424.679 138.059 426.978 138.113 430.363L80.0586 430.238C79.9749 427.596 80.5869 425.184 82.4815 423.256C84.9298 420.764 87.4879 420.886 90.7083 420.886L95.6977 420.878C95.7667 420.651 95.7224 420.301 95.7224 420.059L95.7283 410.934L71.0421 410.951C69.9221 410.951 68.6811 411.048 67.5788 410.862C63.9726 410.251 61.1565 407.249 60.1488 403.827C59.6293 402.063 59.8859 400.108 59.8863 398.286L59.8827 342.894C59.8845 341.906 59.829 340.889 59.9595 339.911C60.5651 335.369 64.2281 332.306 68.6892 332.034L147.854 332.015C148.699 332.016 149.669 331.937 150.495 332.105C155.289 333.075 158.28 336.78 158.293 341.567L158.299 400.001C158.3 400.851 158.36 401.759 158.234 402.601C157.624 406.665 154.842 409.967 150.767 410.808C149.574 411.054 148.254 410.955 147.038 410.955L122.432 410.947L122.438 420.839C122.584 421.013 130.319 420.744 131.413 420.963C132.658 421.211 133.678 421.667 134.718 422.404ZM73.922 342.158L70.2228 342.164L70.2127 400.788L100.223 400.805C100.849 400.836 100.982 401.391 101.339 401.845L105.9 407.69C106.188 408.066 108.856 411.781 109.025 411.838L116.411 402.231C116.676 401.892 117.227 400.996 117.527 400.79L133.427 400.788L147.861 400.79L147.916 342.183L73.922 342.158Z" fill="#00ADB5"/>
<path d="M110.547 396.223L110.271 396.25C96.8696 397.164 85.1219 386.416 84.2846 372.983C83.4435 359.49 94.208 348.075 107.618 347.254C109.102 347.225 110.679 347.118 112.144 347.374C117.321 348.282 122.322 350.372 126.203 353.993C134.492 361.729 136.148 374.471 130.416 384.179C126.388 390.999 118.556 395.974 110.547 396.223Z" fill="#00ADB5"/>
<path d="M192.343 340.738C189.375 338.463 189.002 336.164 188.948 332.779L247.003 332.905C247.086 335.546 246.474 337.958 244.579 339.886C242.131 342.378 239.573 342.256 236.353 342.256L231.363 342.263C231.295 342.491 231.339 342.841 231.339 343.083L231.333 352.209L256.019 352.191C257.139 352.191 258.38 352.094 259.482 352.28C263.088 352.891 265.905 355.893 266.912 359.315C267.432 361.079 267.175 363.034 267.175 364.856L267.178 420.249C267.176 421.236 267.232 422.253 267.101 423.231C266.496 427.773 262.833 430.836 258.371 431.108L179.207 431.128C178.361 431.126 177.392 431.205 176.565 431.037C171.772 430.067 168.782 426.362 168.768 421.575L168.762 363.141C168.762 362.291 168.7 361.383 168.826 360.541C169.437 356.477 172.219 353.175 176.294 352.334C177.487 352.088 178.807 352.187 180.023 352.187L204.629 352.195L204.623 342.303C204.477 342.129 196.742 342.398 195.648 342.179C194.403 341.931 193.382 341.475 192.343 340.738ZM253.139 420.984L256.838 420.978L256.848 362.354L226.838 362.337C226.212 362.306 226.079 361.751 225.721 361.297L221.16 355.452C220.873 355.076 218.205 351.361 218.036 351.304L210.65 360.911C210.384 361.25 209.833 362.146 209.534 362.352L193.634 362.354L179.2 362.352L179.145 420.959L253.139 420.984Z" fill="#00ADB5"/>
<path d="M216.514 366.919L216.789 366.892C230.191 365.978 241.939 376.726 242.776 390.159C243.617 403.652 232.853 415.067 219.443 415.888C217.959 415.917 216.381 416.024 214.917 415.768C209.74 414.861 204.738 412.77 200.858 409.149C192.569 401.413 190.912 388.671 196.645 378.963C200.673 372.143 208.505 367.168 216.514 366.919Z" fill="#00ADB5"/>
<path d="M352.758 422.404C355.726 424.679 356.099 426.978 356.154 430.363L298.099 430.238C298.015 427.596 298.627 425.184 300.522 423.256C302.971 420.764 305.528 420.886 308.749 420.886L313.738 420.878C313.806 420.651 313.763 420.301 313.763 420.059L313.769 410.934L289.083 410.951C287.963 410.951 286.722 411.048 285.619 410.862C282.013 410.251 279.197 407.249 278.189 403.827C277.669 402.063 277.927 400.108 277.927 398.286L277.923 342.894C277.925 341.906 277.87 340.889 278 339.911C278.606 335.369 282.269 332.306 286.73 332.034L365.894 332.015C366.74 332.016 367.709 331.937 368.535 332.105C373.33 333.075 376.32 336.78 376.334 341.567L376.34 400.001C376.341 400.851 376.401 401.759 376.275 402.601C375.664 406.665 372.883 409.967 368.808 410.808C367.615 411.054 366.294 410.955 365.078 410.955L340.473 410.947L340.479 420.839C340.624 421.013 348.36 420.744 349.453 420.963C350.699 421.211 351.719 421.667 352.758 422.404ZM291.962 342.158L288.263 342.164L288.253 400.788L318.263 400.805C318.889 400.836 319.022 401.391 319.38 401.845L323.941 407.69C324.229 408.066 326.896 411.781 327.065 411.838L334.451 402.231C334.717 401.892 335.268 400.996 335.568 400.79L351.468 400.788L365.902 400.79L365.956 342.183L291.962 342.158Z" fill="#00ADB5"/>
<path d="M328.587 396.223L328.312 396.25C314.91 397.164 303.162 386.416 302.325 372.983C301.485 359.49 312.249 348.075 325.658 347.254C327.143 347.225 328.72 347.118 330.184 347.374C335.362 348.282 340.363 350.372 344.243 353.993C352.532 361.729 354.189 374.471 348.456 384.179C344.428 390.999 336.597 395.974 328.587 396.223Z" fill="#00ADB5"/>
<path d="M410.384 340.738C407.416 338.463 407.043 336.164 406.988 332.779L465.043 332.905C465.127 335.546 464.515 337.958 462.62 339.886C460.171 342.378 457.613 342.256 454.393 342.256L449.404 342.263C449.336 342.491 449.379 342.841 449.379 343.083L449.373 352.209L474.059 352.191C475.179 352.191 476.42 352.094 477.522 352.28C481.129 352.891 483.945 355.893 484.953 359.315C485.472 361.079 485.215 363.034 485.215 364.856L485.219 420.249C485.217 421.236 485.272 422.253 485.142 423.231C484.536 427.773 480.873 430.836 476.412 431.108L397.248 431.128C396.402 431.126 395.433 431.205 394.607 431.037C389.812 430.067 386.823 426.362 386.808 421.575L386.802 363.141C386.802 362.291 386.741 361.383 386.867 360.541C387.478 356.477 390.259 353.175 394.334 352.334C395.527 352.088 396.848 352.187 398.064 352.187L422.669 352.195L422.663 342.303C422.517 342.129 414.782 342.398 413.689 342.179C412.443 341.931 411.423 341.475 410.384 340.738ZM471.18 420.984L474.879 420.978L474.889 362.354L444.879 362.337C444.253 362.306 444.12 361.751 443.762 361.297L439.201 355.452C438.912 355.076 436.246 351.361 436.077 351.304L428.691 360.911C428.425 361.25 427.874 362.146 427.574 362.352L411.674 362.354L397.24 362.352L397.186 420.959L471.18 420.984Z" fill="#00ADB5"/>
<path d="M434.555 366.919L434.83 366.892C448.232 365.978 459.98 376.726 460.817 390.159C461.657 403.652 450.893 415.067 437.484 415.888C435.999 415.917 434.422 416.024 432.958 415.768C427.78 414.861 422.779 412.77 418.899 409.149C410.61 401.413 408.953 388.671 414.686 378.963C418.714 372.143 426.545 367.168 434.555 366.919Z" fill="#00ADB5"/>
</g>
<defs>
<clipPath id="clip0_4_141">
<rect width="436" height="436" fill="white"/>
</clipPath>
</defs>
</svg>
