<svg width="119" height="119" viewBox="0 0 119 119" fill="none" xmlns="http://www.w3.org/2000/svg">
<path d="M90.0228 108.668C93.5909 111.402 94.0388 114.166 94.1045 118.234L24.3234 118.083C24.223 114.909 24.9584 112.009 27.2356 109.691C30.1786 106.696 33.2539 106.843 37.1241 106.842L43.1213 106.834C43.2038 106.561 43.151 106.14 43.1513 105.85L43.1586 94.8805L13.4859 94.9016C12.1395 94.9013 10.6479 95.0181 9.32295 94.794C4.9883 94.0602 1.60335 90.4512 0.392162 86.3384C-0.23228 84.2183 0.0760453 81.8685 0.0766064 79.6784L0.0722498 13.097C0.0744283 11.9107 0.00775237 10.6884 0.164639 9.51172C0.892494 4.05352 5.29537 0.370901 10.6578 0.0436945L105.812 0.0209845C106.828 0.0224038 107.994 -0.072163 108.987 0.128987C114.75 1.29552 118.343 5.7485 118.36 11.5024L118.368 81.7401C118.368 82.7623 118.441 83.8532 118.29 84.8646C117.556 89.7501 114.213 93.718 109.315 94.7293C107.88 95.0254 106.293 94.9062 104.831 94.9059L75.2561 94.896L75.2633 106.786C75.4383 106.996 84.7356 106.673 86.0503 106.935C87.5475 107.234 88.7738 107.782 90.0228 108.668ZM16.9474 12.2124L12.5009 12.221L12.4887 82.6858L48.5607 82.7056C49.3132 82.7435 49.4727 83.4109 49.9024 83.9552L55.3854 90.9816C55.7316 91.4338 58.9373 95.8988 59.1407 95.9668L68.0181 84.42C68.3376 84.0123 69.0001 82.9356 69.3605 82.6884L88.4721 82.6861L105.821 82.6884L105.887 12.2431L16.9474 12.2124Z" fill="#222831"/>
<path d="M60.9696 77.1985L60.6388 77.2302C44.5303 78.3297 30.4093 65.4114 29.4029 49.2643C28.3922 33.0456 41.3312 19.3246 57.4493 18.339C59.2327 18.3027 61.1293 18.1746 62.8893 18.4829C69.1129 19.5728 75.1243 22.0854 79.788 26.4384C89.7514 35.7377 91.7431 51.0534 84.8517 62.7223C80.0108 70.9188 70.5973 76.8988 60.9696 77.1985Z" fill="#222831"/>
</svg>
